<svg width="74" height="32" viewBox="0 0 74 32" fill="none" xmlns="http://www.w3.org/2000/svg">
<path d="M3.2456 11.2707L6.36971 19.864L9.58676 11.2707H11.6225L14.8396 19.864L17.9637 11.2707H21.2093L16.2866 24.8113H13.4352L10.6046 17.2505L7.77408 24.8113H4.92271L0 11.2707H3.2456Z" fill="#FAFAFA"/>
<path fill-rule="evenodd" clip-rule="evenodd" d="M41.4312 11.577L40.9803 14.5237L40.9761 14.523C39.7349 14.2235 36.0475 13.5915 34.0473 14.5636C33.4587 14.8497 33.1573 15.8792 33.8202 16.2685C35.6898 17.3664 38.2007 16.7483 40.1337 17.8834C42.8315 19.4675 42.3791 23.4944 39.6921 24.8003C37.0646 26.0773 33.7005 25.7929 30.9335 25.1234L31.3844 22.1768L31.3886 22.1774C32.6298 22.4769 36.3172 23.1089 38.3174 22.1368C38.906 21.8507 39.2074 20.8213 38.5445 20.432C36.6831 19.339 34.1548 19.9468 32.2309 18.8171C29.5332 17.2329 29.9856 13.206 32.6726 11.9001C35.3001 10.6231 38.6643 10.9075 41.4312 11.577Z" fill="#FAFAFA"/>
<path fill-rule="evenodd" clip-rule="evenodd" d="M65.3023 14.0373C63.388 14.0373 61.9159 15.2925 61.7568 16.9305C61.6832 17.688 61.6835 18.3971 61.7568 19.1517C61.9159 20.7897 63.388 22.0449 65.3023 22.0449C67.2167 22.0449 68.6888 20.7897 68.8479 19.1517C68.9211 18.3971 68.9214 17.688 68.8479 16.9305C68.6888 15.2925 67.2167 14.0373 65.3023 14.0373ZM58.6735 16.6425C59.0059 13.2202 62.0332 11 65.3023 11C68.5714 11 71.5988 13.2202 71.9312 16.6425C72.0231 17.5891 72.0228 18.4964 71.9312 19.4397C71.5988 22.862 68.5714 25.0822 65.3023 25.0822C62.0332 25.0822 59.0059 22.862 58.6735 19.4397C58.5819 18.4964 58.5816 17.5891 58.6735 16.6425Z" fill="#FAFAFA"/>
<path d="M27.2951 17.6043C27.6696 15.9826 27.7525 14.7336 27.7322 13.8575C27.7113 12.9565 27.4909 12.1363 27.2495 11.2707H23.4418L22.3255 14.263H24.6736C24.6268 16.7899 22.9317 19.6411 24.1395 22.1032C24.8945 24.0342 26.5611 24.7944 28.4651 25.353L29.1627 22.374C28.172 22.0834 27.4992 21.9728 27.0891 20.924C26.6332 19.7582 27.033 18.7394 27.2951 17.6043Z" fill="#FAFAFA"/>
<path fill-rule="evenodd" clip-rule="evenodd" d="M46.8837 11.8914C47.8784 11.3178 49.0573 11 50.3322 11C53.4904 11 56.5415 13.29 56.8625 16.6458C56.9531 17.5927 56.9525 18.4963 56.8622 19.4397C56.5348 22.862 53.5526 25.0822 50.3322 25.0822C49.1008 25.0822 47.9035 24.8367 46.8837 24.3075L46.8837 29H43.8139V17.3692C43.8139 17.3686 43.8139 17.3679 43.8139 17.3672V11.2708H46.8837V11.8914ZM50.3322 14.0373C52.1506 14.0373 53.6744 15.3576 53.8252 16.9337C53.8976 17.6909 53.897 18.3972 53.8249 19.1517C53.6682 20.7897 52.218 22.0449 50.3322 22.0449C47.0703 22.0449 46.8837 19.8014 46.8837 18.0411C46.8837 15.4684 47.7209 14.1143 50.3322 14.0373Z" fill="#FAFAFA"/>
<path d="M23.0466 5.93204C23.1651 4.78664 24.2501 4 25.5 4C26.7499 4 27.8349 4.78664 27.9534 5.93204L27.9879 6.26575C28.004 6.42157 28.004 6.57843 27.9879 6.73425L27.9534 7.06796C27.8349 8.21336 26.7499 9 25.5 9C24.2501 9 23.1651 8.21336 23.0466 7.06796L23.0121 6.73425C22.996 6.57843 22.996 6.42157 23.0121 6.26575L23.0466 5.93204Z" fill="#7A31D2"/>
</svg>
