<svg width="200" height="200" viewBox="0 0 200 200" fill="none" xmlns="http://www.w3.org/2000/svg">
<path d="M16.6116 140.053L5.72593 132.239C3.03905 130.31 1.6734 127.999 1.59291 125.684V61.7583M184.203 18.5891C184.436 13.2576 176.865 8.90035 167.602 9.03447C165.2 9.06924 162.842 9.41108 160.698 10.0352L154.87 11.7316C147.481 13.8826 138.527 13.0587 132.672 9.68886L119.095 3.42383C111.607 -0.0313678 100.801 0.30972 94.0151 4.21549C90.8922 6.01281 89.0809 8.29999 88.6203 10.6655M184.203 18.5891C184.142 19.9952 183.668 21.2735 182.815 22.3993L180.688 25.2048C177.801 29.0138 179.26 33.4517 184.366 36.3902M184.203 18.5891L184.366 36.3902M184.366 36.3902C185.263 36.9066 186.061 37.4774 186.744 38.0927L195.91 46.3442C198.587 48.7545 199.517 51.5637 198.801 54.2357M15.4768 96.5871C15.2438 101.919 22.8147 106.276 32.0781 106.142C34.48 106.107 36.8384 105.765 38.9823 105.141L44.8098 103.445C52.1987 101.294 61.1525 102.118 67.0076 105.487L80.5847 111.752C88.0726 115.208 98.8785 114.866 105.665 110.961C109.255 108.894 111.112 106.181 111.175 103.445M15.4768 96.5871C15.5372 95.2048 16.1312 93.8475 17.2156 92.6136L20.1632 89.2597C23.9006 85.0071 22.469 79.8539 16.6138 76.4841L5.72817 68.6701C2.90332 66.6423 1.53887 64.1917 1.59291 61.7583M15.4768 96.5871V160.109C15.476 160.125 15.4752 160.14 15.4746 160.156C15.2415 165.487 22.8124 169.845 32.0759 169.71C34.4778 169.676 36.8361 169.334 38.9801 168.71L44.8075 167.013C52.1965 164.862 61.1503 165.686 67.0054 169.056L80.5825 175.321C88.0703 178.776 98.8762 178.435 105.663 174.529C108.917 172.656 110.747 170.251 111.108 167.78L111.175 103.445M1.59291 61.7583C1.65372 59.0201 3.51056 56.3037 7.1037 54.2357C13.8901 50.3299 24.696 49.9888 32.1838 53.444L43.583 58.7041C44.0715 58.9295 44.5922 59.1284 45.1383 59.2991M198.801 54.2357C198.176 56.5707 196.294 58.8009 193.222 60.5686C186.068 64.686 174.677 65.0456 166.783 61.4031L156.097 56.4721C154.67 55.8136 152.968 55.3814 151.161 55.2184C144.137 54.5848 138.077 58.0726 139.178 62.115C139.461 63.155 140.212 64.1343 141.357 64.9556L150.496 71.5162C153.415 73.6118 154.775 76.1589 154.621 78.672M198.801 54.2357V117.796C198.178 120.134 196.295 122.367 193.22 124.137C186.066 128.255 174.674 128.614 166.781 124.972L156.095 120.041C155.36 119.702 154.553 119.423 153.696 119.21M111.175 103.445C111.232 101.009 109.868 98.5559 107.04 96.5263L97.9009 89.9657C96.7567 89.1444 96.0057 88.1651 95.7225 87.1251C94.6217 83.0827 100.682 79.5949 107.705 80.2285C109.513 80.3915 111.214 80.8237 112.641 81.4822L124.04 86.7423C131.528 90.1975 142.334 89.8564 149.121 85.9506C152.607 83.9441 154.459 81.327 154.621 78.672M110.151 144.198C111.041 144.414 111.879 144.7 112.639 145.051L124.038 150.311C131.526 153.766 142.332 153.425 149.118 149.519C152.621 147.503 154.474 144.871 154.621 142.202V78.672M45.1383 37.4139C44.8935 34.4269 46.7692 31.4069 50.6896 29.1506C57.4389 25.2662 68.1444 24.8613 75.719 28.2038L87.8624 33.5625C88.1074 33.6706 88.3603 33.772 88.6203 33.8663M45.1383 37.4139C45.3219 39.6541 46.6981 41.8757 49.2991 43.7427L58.3233 50.2206C59.4675 51.0419 60.2185 52.0212 60.5017 53.0612C61.6025 57.1036 55.5425 60.5913 48.5187 59.9578C47.3303 59.8506 46.1874 59.627 45.1383 59.2991M45.1383 37.4139V59.2991M88.6203 10.6655C88.08 13.4406 89.3987 16.3235 92.6395 18.6499L101.834 25.2501C102.942 26.0455 103.672 27.003 103.946 28.0101C105.029 31.9847 98.9396 35.4205 92.0773 34.6542C90.8475 34.5169 89.6755 34.2492 88.6203 33.8663M88.6203 10.6655V33.8663" stroke="#60626C" stroke-opacity="0.6" stroke-width="1.93237"/>
<mask id="mask0_10001_3674" style="mask-type:alpha" maskUnits="userSpaceOnUse" x="1" y="10" width="198" height="168">
<path fill-rule="evenodd" clip-rule="evenodd" d="M15.4769 97.0648C15.4699 96.9062 15.4698 96.7466 15.4769 96.5862V97.0648ZM1.63928 62.6698C1.6131 62.4585 1.59767 62.247 1.59297 62.0354V61.7573C1.58622 62.0615 1.60163 62.366 1.63928 62.6698ZM88.6204 10.6646V13.0873C88.4633 12.2814 88.4639 11.4685 88.6204 10.6646Z" fill="white"/>
<path d="M67.0054 169.055L80.5825 175.32C88.0704 178.775 98.8763 178.434 105.663 174.528C108.917 172.655 110.747 170.25 111.108 167.779L111.133 144.47L111.176 103.444C111.112 106.18 109.255 108.893 105.665 110.96C98.8785 114.866 88.0726 115.207 80.5848 111.751L67.0077 105.486C61.1526 102.117 52.1988 101.293 44.8098 103.444L38.9824 105.14C36.8384 105.764 34.4801 106.106 32.0782 106.141C23.0935 106.271 15.7011 102.176 15.4769 97.0648V139.237V160.108L15.4746 160.155C15.2416 165.486 22.8125 169.844 32.076 169.709C34.4778 169.675 36.8362 169.333 38.9801 168.709L44.8076 167.012C52.1965 164.861 61.1503 165.685 67.0054 169.055Z" fill="white"/>
<path d="M16.6139 76.4831L5.72823 68.6691C3.25649 66.8948 1.90287 64.7968 1.63928 62.6698C1.6131 62.4585 1.59767 62.247 1.59297 62.0354V125.683C1.67346 127.998 3.03911 130.309 5.726 132.238L15.4769 139.237V97.0648C15.4699 96.9062 15.4698 96.7466 15.4769 96.5862C15.5373 95.2038 16.1312 93.8465 17.2157 92.6126L20.1633 89.2587C23.9007 85.0061 22.469 79.853 16.6139 76.4831Z" fill="white"/>
<path d="M58.3234 50.2196L49.2991 43.7417C46.6982 41.8747 45.3219 39.6531 45.1383 37.413V59.2981C46.1875 59.626 47.3303 59.8496 48.5188 59.9568C55.5425 60.5904 61.6026 57.1026 60.5018 53.0603C60.2186 52.0202 59.4676 51.0409 58.3234 50.2196Z" fill="white"/>
<path d="M101.834 25.2491L92.6396 18.6489C90.3376 16.9964 89.0054 15.0632 88.6204 13.0873V33.8653C89.6756 34.2482 90.8475 34.5159 92.0774 34.6532C98.9397 35.4195 105.029 31.9837 103.946 28.0091C103.672 27.002 102.942 26.0445 101.834 25.2491Z" fill="white"/>
<path d="M112.639 145.05L124.038 150.31C131.526 153.765 142.332 153.424 149.118 149.518C152.622 147.502 154.474 144.87 154.621 142.201V119.471V78.6711C154.459 81.3261 152.607 83.9431 149.121 85.9496C142.334 89.8554 131.528 90.1965 124.04 86.7413L112.641 81.4812C111.214 80.8227 109.513 80.3905 107.706 80.2275C100.682 79.594 94.6218 83.0817 95.7226 87.1241C96.0058 88.1641 96.7568 89.1434 97.9009 89.9647L107.04 96.5253C109.868 98.5549 111.232 101.008 111.176 103.444L111.133 144.47C111.661 144.638 112.165 144.831 112.639 145.05Z" fill="white"/>
<path d="M156.095 120.04L166.781 124.971C174.675 128.613 186.066 128.254 193.22 124.136C196.295 122.366 198.178 120.133 198.801 117.795V54.2347C198.176 56.5697 196.294 58.7999 193.222 60.5676C186.068 64.685 174.677 65.0446 166.783 61.4022L156.097 56.4711C154.67 55.8126 152.968 55.3804 151.161 55.2174C144.137 54.5839 138.077 58.0716 139.178 62.114C139.461 63.154 140.212 64.1333 141.357 64.9546L150.496 71.5152C153.415 73.6108 154.775 76.1579 154.621 78.6711V119.471C155.137 119.636 155.631 119.826 156.095 120.04Z" fill="white"/>
</mask>
<g mask="url(#mask0_10001_3674)">
<path d="M220.063 72.2607L-6.72198 -42.6035" stroke="#60626C" stroke-opacity="0.6"/>
<path d="M220.063 78.2549L-6.72198 -36.6094" stroke="#60626C" stroke-opacity="0.6"/>
<path d="M220.063 84.4892L-6.72198 -30.375" stroke="#60626C" stroke-opacity="0.6"/>
<path d="M220.063 90.7236L-6.72198 -24.1406" stroke="#60626C" stroke-opacity="0.6"/>
<path d="M220.063 96.9599L-6.72198 -17.9043" stroke="#60626C" stroke-opacity="0.6"/>
<path d="M220.063 103.193L-6.72198 -11.6709" stroke="#60626C" stroke-opacity="0.6"/>
<path d="M220.063 109.43L-6.72198 -5.43457" stroke="#60626C" stroke-opacity="0.6"/>
<path d="M220.063 115.665L-6.72198 0.800781" stroke="#60626C" stroke-opacity="0.6"/>
<path d="M220.063 121.899L-6.72198 7.03516" stroke="#60626C" stroke-opacity="0.6"/>
<path d="M220.063 128.134L-6.72198 13.2695" stroke="#60626C" stroke-opacity="0.6"/>
<path d="M220.063 134.369L-6.72198 19.5049" stroke="#60626C" stroke-opacity="0.6"/>
<path d="M220.063 140.604L-6.72198 25.7402" stroke="#60626C" stroke-opacity="0.6"/>
<path d="M220.063 146.84L-6.72198 31.9756" stroke="#60626C" stroke-opacity="0.6"/>
<path d="M220.063 153.074L-6.72198 38.21" stroke="#60626C" stroke-opacity="0.6"/>
<path d="M220.063 159.31L-6.72198 44.4453" stroke="#60626C" stroke-opacity="0.6"/>
<path d="M220.063 165.545L-6.72198 50.6807" stroke="#60626C" stroke-opacity="0.6"/>
<path d="M220.063 171.779L-6.72198 56.915" stroke="#60626C" stroke-opacity="0.6"/>
<path d="M220.063 178.015L-6.72198 63.1504" stroke="#60626C" stroke-opacity="0.6"/>
<path d="M220.063 184.25L-6.72198 69.3857" stroke="#60626C" stroke-opacity="0.6"/>
<path d="M220.063 190.484L-6.72198 75.6201" stroke="#60626C" stroke-opacity="0.6"/>
<path d="M220.063 196.72L-6.72198 81.8555" stroke="#60626C" stroke-opacity="0.6"/>
<path d="M220.063 202.955L-6.72198 88.0908" stroke="#60626C" stroke-opacity="0.6"/>
<path d="M220.063 209.188L-6.72198 94.3242" stroke="#60626C" stroke-opacity="0.6"/>
<path d="M220.063 215.425L-6.72198 100.561" stroke="#60626C" stroke-opacity="0.6"/>
<path d="M220.063 221.66L-6.72198 106.796" stroke="#60626C" stroke-opacity="0.6"/>
<path d="M220.063 227.895L-6.72198 113.03" stroke="#60626C" stroke-opacity="0.6"/>
<path d="M220.063 234.131L-6.72198 119.267" stroke="#60626C" stroke-opacity="0.6"/>
<path d="M220.063 240.364L-6.72198 125.5" stroke="#60626C" stroke-opacity="0.6"/>
<path d="M220.063 246.6L-6.72198 131.735" stroke="#60626C" stroke-opacity="0.6"/>
<path d="M220.063 252.835L-6.72198 137.971" stroke="#60626C" stroke-opacity="0.6"/>
<path d="M220.063 259.069L-6.72198 144.205" stroke="#60626C" stroke-opacity="0.6"/>
<path d="M220.063 265.305L-6.72198 150.44" stroke="#60626C" stroke-opacity="0.6"/>
<path d="M220.063 271.541L-6.72198 156.677" stroke="#60626C" stroke-opacity="0.6"/>
<path d="M220.063 277.774L-6.72198 162.91" stroke="#60626C" stroke-opacity="0.6"/>
</g>
</svg>
