<svg width="200" height="201" viewBox="0 0 200 201" fill="none" xmlns="http://www.w3.org/2000/svg">
<path d="M100.941 0V30.8824M100.941 30.8824L87.7059 18.0147M100.941 30.8824L114.176 18.0147" stroke="#F34B16" stroke-width="3.52941"/>
<path d="M5.64706 35.2939L198 35.2939" stroke="#F34B16" stroke-width="3.52941"/>
<rect x="4.76477" y="52.0576" width="191.471" height="1.76471" fill="#FAFAFA"/>
<rect x="4.76477" y="198.527" width="191.471" height="1.76471" fill="#FAFAFA"/>
<path d="M196.235 52.9385L196.235 199.409" stroke="#0F0F0F" stroke-opacity="0.8" stroke-linecap="round" stroke-linejoin="bevel" stroke-dasharray="0.88 8.82"/>
<path d="M4.7647 199.409L4.76471 52.9385" stroke="#0F0F0F" stroke-opacity="0.8" stroke-linecap="round" stroke-linejoin="bevel" stroke-dasharray="0.88 8.82"/>
<mask id="mask0_10031_628" style="mask-type:alpha" maskUnits="userSpaceOnUse" x="4" y="52" width="193" height="149">
<path d="M4.76474 52.0547H196.235V200.29H4.76474V52.0547Z" fill="white"/>
</mask>
<g mask="url(#mask0_10031_628)">
<path d="M-8.22151 53.3262C-41.7466 60.4137 -66.9066 90.1726 -66.9066 125.808C-66.9066 166.724 -33.7379 199.892 7.17776 199.892" stroke="#0F0F0F" stroke-opacity="0.8"/>
<path d="M17.3331 53.3262C-16.1919 60.4137 -41.352 90.1726 -41.352 125.808C-41.352 166.724 -8.18327 199.892 32.7324 199.892" stroke="#0F0F0F" stroke-opacity="0.8"/>
<path d="M42.8877 53.3262C9.36268 60.4137 -15.7973 90.1726 -15.7973 125.808C-15.7973 166.724 17.3714 199.892 58.287 199.892" stroke="#0F0F0F" stroke-opacity="0.8"/>
<path d="M68.4407 53.3262C34.9156 60.4137 9.75562 90.1726 9.75562 125.808C9.75562 166.724 42.9243 199.892 83.84 199.892" stroke="#0F0F0F" stroke-opacity="0.8"/>
<path d="M93.997 53.3262C60.472 60.4137 35.312 90.1726 35.312 125.808C35.312 166.724 68.4806 199.892 109.396 199.892" stroke="#0F0F0F" stroke-opacity="0.8"/>
<path d="M119.552 53.3262C86.0266 60.4137 60.8665 90.1726 60.8665 125.808C60.8665 166.724 94.0352 199.892 134.951 199.892" stroke="#0F0F0F" stroke-opacity="0.8"/>
<path d="M145.106 53.3262C111.581 60.4137 86.4212 90.1726 86.4212 125.808C86.4212 166.724 119.59 199.892 160.506 199.892" stroke="#0F0F0F" stroke-opacity="0.8"/>
<path d="M170.663 53.3262C137.138 60.4137 111.978 90.1726 111.978 125.808C111.978 166.724 145.146 199.892 186.062 199.892" stroke="#0F0F0F" stroke-opacity="0.8"/>
<path d="M196.216 53.3262C162.69 60.4137 137.53 90.1726 137.53 125.808C137.53 166.724 170.699 199.892 211.615 199.892" stroke="#0F0F0F" stroke-opacity="0.8"/>
<path d="M221.77 53.3262C188.245 60.4137 163.085 90.1726 163.085 125.808C163.085 166.724 196.254 199.892 237.169 199.892" stroke="#0F0F0F" stroke-opacity="0.8"/>
<path d="M247.325 53.3262C213.8 60.4137 188.64 90.1726 188.64 125.808C188.64 166.724 221.808 199.892 262.724 199.892" stroke="#0F0F0F" stroke-opacity="0.8"/>
</g>
</svg>
