<svg width="313" height="60" viewBox="0 0 313 60" fill="none" xmlns="http://www.w3.org/2000/svg">
<g clip-path="url(#clip0_124_46)">
<path d="M45.0141 24.8391V25.489L45.5442 25.8478L50.8161 29.4156V42.2241L25.9998 58.563L1.18347 42.2241V17.7779L25.9992 1.43945L38.8631 9.9241V17.2065V17.8733L39.4146 18.2293L45.0141 21.8439V24.8391Z" fill="#292A2E" stroke="#FAFAFA" stroke-width="2.43293"/>
<path d="M49.0712 30.6627V40.9869L25.9998 56.0946L2.92847 40.9869V30.6627L25.9998 15.5549L49.0712 30.6627Z" fill="#292A2E" stroke="#FAFAFA" stroke-width="2.43293"/>
<path d="M26.1748 55.9432V44.2957Z" fill="#292A2E"/>
<path d="M26.1748 55.9432V44.2957" stroke="#FAFAFA" stroke-width="2.43293"/>
<path d="M26.0002 44.4472L3.93933 30.001L26.0002 15.5549L48.0611 30.001L26.0002 44.4472Z" fill="#292A2E" stroke="#FAFAFA" stroke-width="2.43293"/>
<path d="M20.5747 32.9534L19.9361 32.5352L19.2975 32.9534L13.8723 36.506L2.92847 29.3397V19.0155L25.9998 3.90771L36.9362 11.0692L36.8565 18.2519L36.8491 18.9171L37.3947 19.2797L42.9662 22.9825L43.0049 33.312L32.0636 40.4766L20.5747 32.9534Z" fill="#292A2E" stroke="#FAFAFA" stroke-width="2.43293"/>
<path d="M31.4254 15.4017L41.9974 22.3246L32.064 28.8292L20.5751 21.3059L19.9365 20.8878L19.2979 21.3059L13.8727 24.8585L3.93933 18.3538L26.0002 3.90771L35.9336 10.4124L31.4254 13.3645L29.8699 14.3831L31.4254 15.4017Z" fill="#292A2E" stroke="#FAFAFA" stroke-width="2.43293"/>
<path d="M13.7839 36.3542V24.7068Z" fill="#292A2E"/>
<path d="M13.7839 36.3542V24.7068" stroke="#FAFAFA" stroke-width="2.43293"/>
<path d="M19.8921 32.8249V21.1775Z" fill="#292A2E"/>
<path d="M19.8921 32.8249V21.1775" stroke="#FAFAFA" stroke-width="2.43293"/>
<path d="M32.1077 40.2366V28.5891Z" fill="#292A2E"/>
<path d="M32.1077 40.2366V28.5891" stroke="#FAFAFA" stroke-width="2.43293"/>
</g>
<path fill-rule="evenodd" clip-rule="evenodd" d="M62 16.4454L87.0024 16.4454L86.117 23.3343H77.7157V40.4452H70.8539V23.3343L62 23.3343L62 16.4454Z" fill="#FAFAFA"/>
<path fill-rule="evenodd" clip-rule="evenodd" d="M87.8963 28.4919C87.8963 21.5933 93.4397 16.001 100.278 16.001H102.962C109.8 16.001 115.343 21.5933 115.343 28.4919C115.343 35.5195 109.8 40.8896 102.962 40.8896H100.278C93.4397 40.8896 87.8963 35.3904 87.8963 28.4919ZM99.9826 23.112C97.2194 23.112 94.9794 25.6577 94.9794 28.4453C94.9794 31.2329 97.2194 33.7786 99.9826 33.7786H103.257C106.02 33.7786 108.26 31.2329 108.26 28.4453C108.26 25.6577 106.02 23.112 103.257 23.112H99.9826Z" fill="#FAFAFA"/>
<path fill-rule="evenodd" clip-rule="evenodd" d="M117.557 16.4457H134.463C140.105 16.4457 144.679 21.04 144.679 26.7073C144.679 32.3747 140.105 37.1121 134.463 37.1121H124.425V44.001L117.557 41.7788V16.4457ZM124.425 30.2233H134.685C136.234 30.2233 137.711 28.4456 137.711 26.7073C137.711 24.89 136.234 23.3345 134.685 23.3345H124.425V30.2233Z" fill="#FAFAFA"/>
<path fill-rule="evenodd" clip-rule="evenodd" d="M146.555 16.4454H171.346L170.466 23.3333H153.417V40.4452H146.555V16.4454Z" fill="#FAFAFA"/>
<path fill-rule="evenodd" clip-rule="evenodd" d="M173.782 16.4457H200.122V40.4455H193.261V23.3336L180.644 23.3336V40.4562H173.782V16.4457Z" fill="#FAFAFA"/>
<path fill-rule="evenodd" clip-rule="evenodd" d="M212.471 16.3972H220.399L231.507 40.4862H223.848L216.476 24.2634L209.446 40.4862H201.718L212.471 16.3972Z" fill="#FAFAFA"/>
<path fill-rule="evenodd" clip-rule="evenodd" d="M243.972 16.3972H251.9L263.008 40.4862H255.783L253.902 36.8234H242.232L240.445 40.4862H233.179L243.972 16.3972ZM244.894 30.5853H251.124L247.977 23.471L244.894 30.5853Z" fill="#FAFAFA"/>
<path fill-rule="evenodd" clip-rule="evenodd" d="M262.094 27.1535C262.094 21.1784 266.916 16.4457 272.864 16.4457H285.56L284.675 23.3336H272.864C271.008 23.3336 269.061 25.2893 269.061 27.1535V29.6672C269.061 31.5315 271.008 33.5566 272.864 33.5566H285.56L284.675 40.4455H272.864C266.916 40.4455 262.094 35.6424 262.094 29.6672V27.1535Z" fill="#FAFAFA"/>
<path d="M313 16.4457L312.115 23.3345H303.713V40.4455H296.852V23.3345L287.998 23.3345V16.4457L313 16.4457Z" fill="#FAFAFA"/>
<defs>
<clipPath id="clip0_124_46">
<rect width="52" height="60.002" fill="white"/>
</clipPath>
</defs>
</svg>
