<svg width="230" height="41" viewBox="0 0 230 41" fill="none" xmlns="http://www.w3.org/2000/svg">
<path d="M31.4661 17.8351V18.2333L31.7983 18.4532L35.102 20.6392V28.4871L19.5507 38.498L3.99951 28.4871V13.5087L19.5504 3.49805L27.6115 8.69665V13.1586V13.5671L27.9572 13.7853L31.4661 16V17.8351Z" fill="#FAFAFA" stroke="#292A2E" stroke-width="1.51433"/>
<path d="M34.0085 21.4033V27.7291L19.5507 36.9857L5.09302 27.7291V21.4033L19.5507 12.1467L34.0085 21.4033Z" fill="#FAFAFA" stroke="#292A2E" stroke-width="1.51433"/>
<path d="M19.6597 36.8929V29.7563" stroke="#292A2E" stroke-width="1.51433"/>
<path d="M19.5504 29.8492L5.72583 20.9979L19.5504 12.1467L33.3749 20.9979L19.5504 29.8492Z" fill="#FAFAFA" stroke="#292A2E" stroke-width="1.51433"/>
<path d="M16.1511 22.8068L15.7509 22.5505L15.3507 22.8068L11.951 24.9834L5.09302 20.5926V14.2669L19.5507 5.01025L26.4041 9.39816L26.3541 13.799L26.3495 14.2066L26.6914 14.4288L30.1828 16.6975L30.207 23.0264L23.3506 27.4163L16.1511 22.8068Z" fill="#FAFAFA" stroke="#292A2E" stroke-width="1.51433"/>
<path d="M22.9501 12.0527L29.5751 16.2944L23.3502 20.2798L16.1507 15.6702L15.7505 15.4141L15.3503 15.6702L11.9506 17.8469L5.72583 13.8615L19.5504 5.01025L25.7752 8.9957L22.9501 10.8045L21.9753 11.4286L22.9501 12.0527Z" fill="#FAFAFA" stroke="#292A2E" stroke-width="1.51433"/>
<path d="M11.8948 24.8906V17.7542" stroke="#292A2E" stroke-width="1.51433"/>
<path d="M15.7231 22.728V15.5916" stroke="#292A2E" stroke-width="1.51433"/>
<path d="M23.3779 27.2693V20.1328" stroke="#292A2E" stroke-width="1.51433"/>
<path fill-rule="evenodd" clip-rule="evenodd" d="M44 11.7857L61.0261 11.7857L60.4231 16.2143H54.702V27.2142H50.0293V16.2143L44 16.2143L44 11.7857Z" fill="#292A2E"/>
<path fill-rule="evenodd" clip-rule="evenodd" d="M62.7095 19.5299C62.7095 15.0951 66.4844 11.5 71.141 11.5H72.9688C77.6254 11.5 81.4003 15.0951 81.4003 19.5299C81.4003 24.0476 77.6254 27.4999 72.9687 27.4999H71.141C66.4844 27.4999 62.7095 23.9646 62.7095 19.5299ZM70.94 16.0714C69.0583 16.0714 67.5329 17.7079 67.5329 19.4999C67.5329 21.292 69.0583 22.9285 70.94 22.9285H73.1698C75.0514 22.9285 76.5769 21.292 76.5769 19.4999C76.5769 17.7079 75.0515 16.0714 73.1698 16.0714H70.94Z" fill="#292A2E"/>
<path fill-rule="evenodd" clip-rule="evenodd" d="M82.9075 11.7859H94.4205C98.2625 11.7859 101.377 14.7393 101.377 18.3826C101.377 22.0259 98.2625 25.0715 94.4205 25.0715H87.585V29.5L82.9075 28.0714V11.7859ZM87.585 20.6429H94.5713C95.6264 20.6429 96.6325 19.5001 96.6325 18.3826C96.6325 17.2144 95.6264 16.2144 94.5713 16.2144H87.585V20.6429Z" fill="#292A2E"/>
<path fill-rule="evenodd" clip-rule="evenodd" d="M102.655 11.7857H119.537L118.937 16.2137H107.327V27.2142H102.655V11.7857Z" fill="#292A2E"/>
<path fill-rule="evenodd" clip-rule="evenodd" d="M121.196 11.7859H139.133V27.2143H134.46V16.2138L125.868 16.2138V27.2212H121.196V11.7859Z" fill="#292A2E"/>
<path fill-rule="evenodd" clip-rule="evenodd" d="M147.542 11.7547H152.941L160.505 27.2405H155.29L150.269 16.8115L145.482 27.2405H140.22L147.542 11.7547Z" fill="#292A2E"/>
<path fill-rule="evenodd" clip-rule="evenodd" d="M168.994 11.7547H174.392L181.957 27.2405H177.037L175.756 24.8858H167.809L166.592 27.2405H161.644L168.994 11.7547ZM169.622 20.8757H173.864L171.721 16.3022L169.622 20.8757Z" fill="#292A2E"/>
<path fill-rule="evenodd" clip-rule="evenodd" d="M181.334 18.6695C181.334 14.8283 184.618 11.7859 188.668 11.7859H197.314L196.711 16.2138H188.668C187.405 16.2138 186.079 17.471 186.079 18.6695V20.2855C186.079 21.4839 187.405 22.7858 188.668 22.7858H197.314L196.711 27.2143H188.668C184.618 27.2143 181.334 24.1266 181.334 20.2855V18.6695Z" fill="#292A2E"/>
<path d="M216 11.7859L215.397 16.2144H209.676V27.2143H205.003V16.2144L198.974 16.2144V11.7859L216 11.7859Z" fill="#292A2E"/>
</svg>
