<svg width="200" height="200" viewBox="0 0 200 200" fill="none" xmlns="http://www.w3.org/2000/svg">
<g clip-path="url(#clip0_10001_1766)">
<mask id="mask0_10001_1766" style="mask-type:alpha" maskUnits="userSpaceOnUse" x="0" y="31" width="130" height="145">
<path d="M72.7896 175.904C32.8421 175.904 0.458214 143.52 0.458214 103.573C0.458214 64.3916 31.6113 32.4867 70.4986 31.2768C71.31 31.2516 71.772 32.1295 71.3769 32.779C71.3435 32.8339 71.3039 32.8873 71.2578 32.9383C62.2757 44.9898 56.9592 59.9341 56.9592 76.1202C56.9592 115.214 87.9743 147.065 126.741 148.407L129.164 148.895C115.906 165.365 95.5786 175.904 72.7896 175.904Z" fill="#FF0000"/>
</mask>
<g mask="url(#mask0_10001_1766)">
<path d="M-32.7571 77.0733L145.422 -13.1729" stroke="#60626C" stroke-opacity="0.6" stroke-width="1.485"/>
<path d="M-32.7571 81.7794L145.422 -8.4668" stroke="#60626C" stroke-opacity="0.6" stroke-width="1.485"/>
<path d="M-32.7571 86.6797L145.422 -3.56641" stroke="#60626C" stroke-opacity="0.6" stroke-width="1.485"/>
<path d="M-32.7571 91.5811L145.422 1.33496" stroke="#60626C" stroke-opacity="0.6" stroke-width="1.485"/>
<path d="M-32.7571 96.4805L145.422 6.23438" stroke="#60626C" stroke-opacity="0.6" stroke-width="1.485"/>
<path d="M-32.7571 101.373L145.422 11.127" stroke="#60626C" stroke-opacity="0.6" stroke-width="1.485"/>
<path d="M-32.7571 106.275L145.422 16.0293" stroke="#60626C" stroke-opacity="0.6" stroke-width="1.485"/>
<path d="M-32.7571 111.174L145.422 20.9277" stroke="#60626C" stroke-opacity="0.6" stroke-width="1.485"/>
<path d="M-32.7571 116.072L145.422 25.8262" stroke="#60626C" stroke-opacity="0.6" stroke-width="1.485"/>
<path d="M-32.7571 120.977L145.422 30.7305" stroke="#60626C" stroke-opacity="0.6" stroke-width="1.485"/>
<path d="M-32.7571 125.87L145.422 35.624" stroke="#60626C" stroke-opacity="0.6" stroke-width="1.485"/>
<path d="M-32.7571 130.769L145.422 40.5225" stroke="#60626C" stroke-opacity="0.6" stroke-width="1.485"/>
<path d="M-32.7571 135.669L145.422 45.4229" stroke="#60626C" stroke-opacity="0.6" stroke-width="1.485"/>
<path d="M-32.7571 140.563L145.422 50.3164" stroke="#60626C" stroke-opacity="0.6" stroke-width="1.485"/>
<path d="M-32.7571 145.465L145.422 55.2188" stroke="#60626C" stroke-opacity="0.6" stroke-width="1.485"/>
<path d="M-32.7571 150.363L145.422 60.1172" stroke="#60626C" stroke-opacity="0.6" stroke-width="1.485"/>
<path d="M-32.7571 155.262L145.422 65.0156" stroke="#60626C" stroke-opacity="0.6" stroke-width="1.485"/>
<path d="M-32.7571 160.163L145.422 69.917" stroke="#60626C" stroke-opacity="0.6" stroke-width="1.485"/>
<path d="M-32.7571 165.058L145.422 74.8115" stroke="#60626C" stroke-opacity="0.6" stroke-width="1.485"/>
<path d="M-32.7571 169.957L145.422 79.7109" stroke="#60626C" stroke-opacity="0.6" stroke-width="1.485"/>
<path d="M-32.7571 174.858L145.422 84.6123" stroke="#60626C" stroke-opacity="0.6" stroke-width="1.485"/>
<path d="M-32.7571 179.759L145.422 89.5127" stroke="#60626C" stroke-opacity="0.6" stroke-width="1.485"/>
<path d="M-32.7571 184.651L145.422 94.4053" stroke="#60626C" stroke-opacity="0.6" stroke-width="1.485"/>
<path d="M-32.7571 189.554L145.422 99.3076" stroke="#60626C" stroke-opacity="0.6" stroke-width="1.485"/>
<path d="M-32.7571 194.453L145.422 104.207" stroke="#60626C" stroke-opacity="0.6" stroke-width="1.485"/>
<path d="M-32.7571 199.352L145.422 109.105" stroke="#60626C" stroke-opacity="0.6" stroke-width="1.485"/>
<path d="M-32.7571 204.253L145.422 114.007" stroke="#60626C" stroke-opacity="0.6" stroke-width="1.485"/>
<path d="M-32.7571 209.148L145.422 118.901" stroke="#60626C" stroke-opacity="0.6" stroke-width="1.485"/>
<path d="M-32.7571 214.046L145.422 123.8" stroke="#60626C" stroke-opacity="0.6" stroke-width="1.485"/>
<path d="M-32.7571 218.944L145.422 128.698" stroke="#60626C" stroke-opacity="0.6" stroke-width="1.485"/>
<path d="M-32.7571 223.842L145.422 133.596" stroke="#60626C" stroke-opacity="0.6" stroke-width="1.485"/>
<path d="M-32.7571 228.741L145.422 138.495" stroke="#60626C" stroke-opacity="0.6" stroke-width="1.485"/>
<path d="M-32.7571 233.642L145.422 143.396" stroke="#60626C" stroke-opacity="0.6" stroke-width="1.485"/>
<path d="M-32.7571 238.541L145.422 148.295" stroke="#60626C" stroke-opacity="0.6" stroke-width="1.485"/>
</g>
<path d="M0.7425 103.573C0.7425 63.7505 33.025 31.4681 72.8474 31.4681C112.67 31.4681 144.952 63.7505 144.952 103.573C144.952 143.395 112.67 175.678 72.8474 175.678C33.025 175.678 0.7425 143.395 0.7425 103.573Z" stroke="#60626C" stroke-opacity="0.6" stroke-width="1.485"/>
<path d="M45.1006 37.8604C27.3156 51.092 15.4823 71.9882 15.4823 95.859C15.4823 135.953 47.9845 168.455 88.078 168.455C94.0851 168.455 101.086 167.659 106.668 166.283" stroke="#60626C" stroke-opacity="0.6" stroke-width="1.485"/>
<path d="M50.366 36.2002C36.9315 49.4152 28.6008 67.8029 28.6008 88.1363C28.6008 128.369 61.2156 160.984 101.448 160.984C109.604 160.984 117.447 159.643 124.768 157.171" stroke="#60626C" stroke-opacity="0.6" stroke-width="1.485"/>
<path d="M62.3399 32.0674C49.9271 45.0763 42.3051 62.6966 42.3051 82.097C42.3051 122.128 74.7566 154.58 114.788 154.58C119.709 154.58 124.516 154.089 129.162 153.154" stroke="#60626C" stroke-opacity="0.6" stroke-width="1.485"/>
<path d="M71.5782 32.0674C62.3658 44.2677 56.9028 59.4577 56.9028 75.9236C56.9028 115.297 88.1392 147.374 127.183 148.727" stroke="#60626C" stroke-opacity="0.6" stroke-width="1.485"/>
<path d="M86.5448 16.6607C95.8596 12.0734 106.327 9.49902 117.391 9.49902C156.269 9.49902 187.785 41.2859 187.785 80.497C187.785 106.611 173.821 130.021 152.998 142.353" stroke="#60626C" stroke-opacity="0.6" stroke-width="1.485"/>
<path d="M73.055 24.0806C82.3699 19.4933 92.8377 16.9189 103.902 16.9189C142.779 16.9189 174.295 48.7058 174.295 87.9169C174.295 114.031 161.226 136.754 140.403 149.086" stroke="#60626C" stroke-opacity="0.6" stroke-width="1.485"/>
<path d="M56.9028 31.7534C66.2176 27.1661 76.7288 24.6289 87.7927 24.6289C126.67 24.6289 158.186 56.4158 158.186 95.6269C158.186 121.741 143.939 144.989 123.117 157.321" stroke="#60626C" stroke-opacity="0.6" stroke-width="1.485"/>
<path d="M39.6599 40.465L97.5872 11.1829C107.01 6.58204 117.599 4 128.791 4C168.118 4 200 35.8812 200 75.2087C200 101.4 185.859 124.29 164.795 136.658L102.347 168.484" stroke="#60626C" stroke-opacity="0.6" stroke-width="1.485"/>
</g>
<defs>
<clipPath id="clip0_10001_1766">
<rect width="200" height="172.421" fill="white" transform="translate(0 4)"/>
</clipPath>
</defs>
</svg>
