<svg width="200" height="200" viewBox="0 0 200 200" fill="none" xmlns="http://www.w3.org/2000/svg">
<path fill-rule="evenodd" clip-rule="evenodd" d="M65.0479 20C63.6966 20.2858 62.3576 20.6053 61.0321 20.9577C26.4683 30.1456 1 61.6604 1 99.1252C1 143.791 37.1998 180 81.8544 180C100.717 180 118.071 173.539 131.825 162.709C132.906 161.858 133.965 160.98 135 160.076C133.675 160.356 132.339 160.604 130.991 160.819C126.823 161.482 122.548 161.826 118.194 161.826C73.5388 161.826 37.3391 125.617 37.3391 80.9511C37.3391 58.1031 46.8113 37.468 62.042 22.7604C63.0205 21.8155 64.0228 20.895 65.0479 20ZM58.1064 23.8897C26.1616 33.9682 3 63.843 3 99.1252C3 142.687 38.3048 178 81.8544 178C98.9703 178 114.809 172.547 127.735 163.282C124.604 163.641 121.42 163.826 118.194 163.826C72.4338 163.826 35.3391 126.721 35.3391 80.9511C35.3391 58.8391 43.9988 38.7483 58.1064 23.8897Z" fill="#60626C" fill-opacity="0.6"/>
<mask id="mask0_10001_468" style="mask-type:alpha" maskUnits="userSpaceOnUse" x="0" y="19" width="136" height="161">
<path d="M64.9997 19.9287C48.0075 34.7609 37.2717 56.5801 37.2717 80.9067C37.2717 125.592 73.4965 161.817 118.182 161.817C123.949 161.817 129.575 161.214 135 160.067C120.779 172.48 102.177 179.999 81.8179 179.999C37.1323 179.999 0.907471 143.774 0.907471 99.0888C0.907471 60.1701 28.3857 27.6692 64.9997 19.9287Z" fill="white"/>
</mask>
<g mask="url(#mask0_10001_468)">
<path fill-rule="evenodd" clip-rule="evenodd" d="M166.698 -32.0767L-31.7018 68.4109L-32.1537 67.5188L166.246 -32.9688L166.698 -32.0767Z" fill="#60626C" fill-opacity="0.6"/>
<path fill-rule="evenodd" clip-rule="evenodd" d="M166.698 -26.8276L-31.7018 73.6599L-32.1537 72.7678L166.246 -27.7197L166.698 -26.8276Z" fill="#60626C" fill-opacity="0.6"/>
<path fill-rule="evenodd" clip-rule="evenodd" d="M166.698 -21.3716L-31.7018 79.116L-32.1537 78.2239L166.246 -22.2637L166.698 -21.3716Z" fill="#60626C" fill-opacity="0.6"/>
<path fill-rule="evenodd" clip-rule="evenodd" d="M166.698 -15.9165L-31.7018 84.571L-32.1537 83.6789L166.246 -16.8086L166.698 -15.9165Z" fill="#60626C" fill-opacity="0.6"/>
<path fill-rule="evenodd" clip-rule="evenodd" d="M166.698 -10.4643L-31.7018 90.0232L-32.1537 89.1311L166.246 -11.3564L166.698 -10.4643Z" fill="#60626C" fill-opacity="0.6"/>
<path fill-rule="evenodd" clip-rule="evenodd" d="M166.698 -5.01024L-31.7018 95.4773L-32.1537 94.5852L166.246 -5.90234L166.698 -5.01024Z" fill="#60626C" fill-opacity="0.6"/>
<path fill-rule="evenodd" clip-rule="evenodd" d="M166.698 0.444834L-31.7018 100.932L-32.1537 100.04L166.246 -0.447266L166.698 0.444834Z" fill="#60626C" fill-opacity="0.6"/>
<path fill-rule="evenodd" clip-rule="evenodd" d="M166.698 5.90089L-31.7018 106.388L-32.1537 105.496L166.246 5.00879L166.698 5.90089Z" fill="#60626C" fill-opacity="0.6"/>
<path fill-rule="evenodd" clip-rule="evenodd" d="M166.698 11.356L-31.7018 111.844L-32.1537 110.951L166.246 10.4639L166.698 11.356Z" fill="#60626C" fill-opacity="0.6"/>
<path fill-rule="evenodd" clip-rule="evenodd" d="M166.698 16.8091L-31.7018 117.297L-32.1537 116.405L166.246 15.917L166.698 16.8091Z" fill="#60626C" fill-opacity="0.6"/>
<path fill-rule="evenodd" clip-rule="evenodd" d="M166.698 22.2642L-31.7018 122.752L-32.1537 121.86L166.246 21.3721L166.698 22.2642Z" fill="#60626C" fill-opacity="0.6"/>
<path fill-rule="evenodd" clip-rule="evenodd" d="M166.698 27.7173L-31.7018 128.205L-32.1537 127.313L166.246 26.8252L166.698 27.7173Z" fill="#60626C" fill-opacity="0.6"/>
<path fill-rule="evenodd" clip-rule="evenodd" d="M166.698 33.1733L-31.7018 133.661L-32.1537 132.769L166.246 32.2812L166.698 33.1733Z" fill="#60626C" fill-opacity="0.6"/>
<path fill-rule="evenodd" clip-rule="evenodd" d="M166.698 38.6284L-31.7018 139.116L-32.1537 138.224L166.246 37.7363L166.698 38.6284Z" fill="#60626C" fill-opacity="0.6"/>
<path fill-rule="evenodd" clip-rule="evenodd" d="M166.698 44.0845L-31.7018 144.572L-32.1537 143.68L166.246 43.1924L166.698 44.0845Z" fill="#60626C" fill-opacity="0.6"/>
<path fill-rule="evenodd" clip-rule="evenodd" d="M166.698 49.5366L-31.7018 150.024L-32.1537 149.132L166.246 48.6445L166.698 49.5366Z" fill="#60626C" fill-opacity="0.6"/>
<path fill-rule="evenodd" clip-rule="evenodd" d="M166.698 54.9917L-31.7018 155.479L-32.1537 154.587L166.246 54.0996L166.698 54.9917Z" fill="#60626C" fill-opacity="0.6"/>
<path fill-rule="evenodd" clip-rule="evenodd" d="M166.698 60.4458L-31.7018 160.933L-32.1537 160.041L166.246 59.5537L166.698 60.4458Z" fill="#60626C" fill-opacity="0.6"/>
<path fill-rule="evenodd" clip-rule="evenodd" d="M166.698 65.9009L-31.7018 166.388L-32.1537 165.496L166.246 65.0088L166.698 65.9009Z" fill="#60626C" fill-opacity="0.6"/>
<path fill-rule="evenodd" clip-rule="evenodd" d="M166.698 71.3569L-31.7018 171.844L-32.1537 170.952L166.246 70.4648L166.698 71.3569Z" fill="#60626C" fill-opacity="0.6"/>
<path fill-rule="evenodd" clip-rule="evenodd" d="M166.698 76.8091L-31.7018 177.297L-32.1537 176.405L166.246 75.917L166.698 76.8091Z" fill="#60626C" fill-opacity="0.6"/>
<path fill-rule="evenodd" clip-rule="evenodd" d="M166.698 82.2651L-31.7018 182.753L-32.1537 181.861L166.246 81.373L166.698 82.2651Z" fill="#60626C" fill-opacity="0.6"/>
<path fill-rule="evenodd" clip-rule="evenodd" d="M166.698 87.7202L-31.7018 188.208L-32.1537 187.316L166.246 86.8281L166.698 87.7202Z" fill="#60626C" fill-opacity="0.6"/>
<path fill-rule="evenodd" clip-rule="evenodd" d="M166.698 93.1743L-31.7018 193.662L-32.1537 192.77L166.246 92.2822L166.698 93.1743Z" fill="#60626C" fill-opacity="0.6"/>
<path fill-rule="evenodd" clip-rule="evenodd" d="M166.698 98.6294L-31.7018 199.117L-32.1537 198.225L166.246 97.7373L166.698 98.6294Z" fill="#60626C" fill-opacity="0.6"/>
<path fill-rule="evenodd" clip-rule="evenodd" d="M166.698 104.084L-31.7018 204.571L-32.1537 203.679L166.246 103.191L166.698 104.084Z" fill="#60626C" fill-opacity="0.6"/>
<path fill-rule="evenodd" clip-rule="evenodd" d="M166.698 109.538L-31.7018 210.025L-32.1537 209.133L166.246 108.646L166.698 109.538Z" fill="#60626C" fill-opacity="0.6"/>
<path fill-rule="evenodd" clip-rule="evenodd" d="M166.698 114.993L-31.7018 215.48L-32.1537 214.588L166.246 114.101L166.698 114.993Z" fill="#60626C" fill-opacity="0.6"/>
<path fill-rule="evenodd" clip-rule="evenodd" d="M166.698 120.448L-31.7018 220.935L-32.1537 220.043L166.246 119.556L166.698 120.448Z" fill="#60626C" fill-opacity="0.6"/>
<path fill-rule="evenodd" clip-rule="evenodd" d="M166.698 125.904L-31.7018 226.391L-32.1537 225.499L166.246 125.012L166.698 125.904Z" fill="#60626C" fill-opacity="0.6"/>
<path fill-rule="evenodd" clip-rule="evenodd" d="M166.698 131.357L-31.7018 231.844L-32.1537 230.952L166.246 130.465L166.698 131.357Z" fill="#60626C" fill-opacity="0.6"/>
<path fill-rule="evenodd" clip-rule="evenodd" d="M166.698 136.81L-31.7018 237.298L-32.1537 236.406L166.246 135.918L166.698 136.81Z" fill="#60626C" fill-opacity="0.6"/>
<path fill-rule="evenodd" clip-rule="evenodd" d="M166.698 142.265L-31.7018 242.753L-32.1537 241.861L166.246 141.373L166.698 142.265Z" fill="#60626C" fill-opacity="0.6"/>
<path fill-rule="evenodd" clip-rule="evenodd" d="M166.698 147.72L-31.7018 248.208L-32.1537 247.316L166.246 146.828L166.698 147.72Z" fill="#60626C" fill-opacity="0.6"/>
</g>
<path fill-rule="evenodd" clip-rule="evenodd" d="M62.4539 20.7133C71.2865 18.4291 78.5834 17.9651 82.1412 18.1528C126.668 18.1528 162.765 54.3191 162.765 98.9325C162.765 123.99 151.377 146.383 133.505 161.2C129.393 164.609 124.939 167.616 120.201 170.163L116.565 172C117.794 171.417 119.007 170.805 120.201 170.163L159.141 150.488C182.99 136.457 199 110.492 199 80.7797C199 36.1663 162.904 0 118.376 0C105.705 0 93.7156 2.92909 83.0471 8.14839L45 27.2291C51.0565 24.195 57.0434 22.1126 62.4539 20.7133ZM69.5545 17.1524C75.0856 16.2193 79.5488 16.0191 82.1931 16.1528C127.805 16.1808 164.765 53.2355 164.765 98.9325C164.765 121.965 155.375 142.8 140.225 157.805L158.182 148.732C181.413 135.039 197 109.733 197 80.7797C197 37.2672 161.795 2 118.376 2C106.019 2 94.3336 4.8549 83.9347 9.94062L69.5545 17.1524Z" fill="#60626C" fill-opacity="0.6"/>
</svg>
