<?xml version="1.0" standalone="no"?>
<!DOCTYPE svg PUBLIC "-//W3C//DTD SVG 20010904//EN"
 "http://www.w3.org/TR/2001/REC-SVG-20010904/DTD/svg10.dtd">
<svg version="1.0" xmlns="http://www.w3.org/2000/svg"
 width="1000.000000pt" height="1000.000000pt" viewBox="0 0 1000.000000 1000.000000"
 preserveAspectRatio="xMidYMid meet">
<metadata>
Created by potrace 1.14, written by Peter Selinger 2001-2017
</metadata>
<g transform="translate(0.000000,1000.000000) scale(0.100000,-0.100000)"
fill="#000000" stroke="none">
<path d="M2799 9996 c-2 -2 -38 -6 -79 -10 -41 -3 -85 -8 -98 -11 -13 -2 -51
-7 -85 -10 -34 -4 -64 -8 -68 -10 -3 -2 -21 -7 -40 -10 -19 -3 -54 -11 -79
-16 -25 -6 -52 -12 -60 -14 -138 -28 -383 -115 -555 -195 -105 -49 -305 -157
-315 -170 -3 -4 -12 -9 -20 -12 -27 -10 -243 -168 -329 -242 -136 -114 -314
-296 -402 -407 -18 -24 -38 -49 -44 -55 -5 -6 -16 -20 -23 -30 -7 -11 -35 -50
-63 -89 -47 -66 -74 -109 -142 -223 -37 -65 -151 -295 -177 -362 -71 -178
-128 -370 -160 -535 -6 -27 -12 -61 -15 -75 -3 -14 -7 -43 -10 -65 -3 -22 -8
-56 -10 -75 -3 -19 -8 -64 -13 -100 -10 -88 -9 -4474 1 -4575 4 -44 10 -87 12
-95 2 -8 6 -35 9 -60 7 -55 13 -87 32 -180 57 -277 208 -666 341 -878 18 -29
33 -54 33 -56 0 -5 142 -216 163 -242 193 -242 351 -401 562 -567 183 -144
437 -293 659 -387 172 -73 427 -153 561 -176 17 -2 37 -7 45 -9 23 -7 68 -14
145 -25 39 -5 88 -13 110 -17 22 -3 1043 -7 2270 -9 2428 -2 2367 -3 2645 57
52 11 102 22 110 24 8 2 42 10 75 19 33 10 65 18 70 19 31 8 216 72 250 86 22
10 60 26 85 36 60 25 324 160 358 184 15 10 65 43 112 74 208 135 458 355 610
536 25 30 50 59 55 65 152 172 358 522 464 788 72 183 145 448 171 623 7 44
14 89 16 99 2 10 7 58 11 105 10 107 11 4436 1 4546 -38 434 -166 840 -389
1235 -51 91 -242 368 -268 390 -3 3 -33 37 -66 75 -57 67 -228 241 -293 297
-271 236 -626 444 -957 561 -237 83 -340 107 -695 163 -46 7 -4513 17 -4521
10z"/>
</g>
</svg>
