<svg width="24" height="24" viewBox="0 0 24 24" xmlns="http://www.w3.org/2000/svg"><path fill-rule="evenodd" clip-rule="evenodd" d="M7.93466 5.96733V7.43466H6.43466V5.96733H3.5V18.88H19.7386V5.96733H16.804V7.43466H15.304V5.96733H7.93466ZM7.93466 4.46733H15.304V3H16.804V4.46733H21.2386V20.38H2V4.46733H6.43466V3H7.93466V4.46733ZM8.29332 11.5106H6.07599V10.0106H8.29332V11.5106ZM12.728 11.5106H10.5106V10.0106H12.728V11.5106ZM17.1626 11.5106H14.9453V10.0106H17.1626V11.5106ZM8.29332 15.9453H6.07599V14.4453H8.29332V15.9453ZM12.728 15.9453H10.5106V14.4453H12.728V15.9453ZM17.1626 15.9453H14.9453V14.4453H17.1626V15.9453Z"/></svg>