<?xml version="1.0" encoding="utf-8"?><svg viewBox="0 0 24 24" xmlns="http://www.w3.org/2000/svg" xmlns:xlink="http://www.w3.org/1999/xlink"><style>:root>svg{display:none}:root>svg:target{display:block}</style><svg viewBox="0 0 24 24" id="arrow-type-1" xmlns="http://www.w3.org/2000/svg"><path fill-rule="evenodd" clip-rule="evenodd" d="M18.813 8.192c.244.262.25.693.014.964l-6.66 7.636a.588.588 0 01-.432.208.584.584 0 01-.438-.192l-7.11-7.636a.735.735 0 01-.014-.965.573.573 0 01.87-.015l6.667 7.162 6.233-7.146a.573.573 0 01.87-.016z"/></svg><svg viewBox="0 0 24 24" id="basket" xmlns="http://www.w3.org/2000/svg"><path fill-rule="evenodd" clip-rule="evenodd" d="M0 0h5.05l4 19.2h9.75v1.6H7.75l-4-19.2H0V0z"/><path fill-rule="evenodd" clip-rule="evenodd" d="M24 4.8H6.05l.334 1.6h15.325L18.8 16h-12l.316 1.6H20l4-12.8zM8.4 22.4a.8.8 0 100-1.6.8.8 0 000 1.6zM6 21.6a2.4 2.4 0 104.8 0 2.4 2.4 0 00-4.8 0zM18.8 22.4a.8.8 0 100-1.6.8.8 0 000 1.6zm-2.4-.8a2.4 2.4 0 104.8 0 2.4 2.4 0 00-4.8 0z"/></svg><svg viewBox="0 0 24 24" id="calendar" xmlns="http://www.w3.org/2000/svg"><path fill-rule="evenodd" clip-rule="evenodd" d="M7.935 5.967v1.468h-1.5V5.967H3.5V18.88h16.239V5.967h-2.935v1.468h-1.5V5.967h-7.37zm0-1.5h7.369V3h1.5v1.467h4.435V20.38H2V4.467h4.435V3h1.5v1.467zm.358 7.044H6.076v-1.5h2.217v1.5zm4.435 0h-2.217v-1.5h2.217v1.5zm4.435 0h-2.218v-1.5h2.218v1.5zm-8.87 4.434H6.076v-1.5h2.217v1.5zm4.435 0h-2.217v-1.5h2.217v1.5zm4.435 0h-2.218v-1.5h2.218v1.5z"/></svg><svg viewBox="0 0 24 24" id="dots" xmlns="http://www.w3.org/2000/svg"><path d="M1 6.765v-3.53L4.5 1 8 3.235v3.53L4.5 9 1 6.765zM16 6.765v-3.53L19.5 1 23 3.235v3.53L19.5 9 16 6.765zM1 20.765v-3.53L4.5 15 8 17.235v3.53L4.5 23 1 20.765zM16 20.765v-3.53L19.5 15l3.5 2.235v3.53L19.5 23 16 20.765z"/></svg><svg viewBox="0 0 24 24" id="logo-vk" xmlns="http://www.w3.org/2000/svg"><path fill-rule="evenodd" clip-rule="evenodd" d="M23.435 6.042c.178-.588 0-1.015-.787-1.015h-2.619c-.66 0-.965.374-1.143.774 0 0-1.348 3.417-3.228 5.632-.61.64-.89.854-1.22.854-.179 0-.408-.214-.408-.8V6.013c0-.694-.202-1.014-.762-1.014H9.15a.645.645 0 00-.661.64c0 .668.94.828 1.042 2.696v4.06c0 .88-.15 1.041-.483 1.041-.89 0-3.05-3.443-4.346-7.366C4.45 5.294 4.194 5 3.533 5H.89C.127 5 0 5.373 0 5.774c0 .72.89 4.35 4.143 9.155 2.16 3.28 5.236 5.044 8.006 5.044 1.679 0 1.882-.4 1.882-1.067v-2.483c0-.8.152-.933.686-.933.381 0 1.067.213 2.618 1.788C19.114 19.146 19.419 20 20.41 20h2.619c.762 0 1.118-.4.915-1.174-.229-.774-1.093-1.895-2.212-3.23-.61-.746-1.525-1.574-1.805-1.975-.38-.534-.279-.747 0-1.227-.025 0 3.178-4.751 3.508-6.354"/></svg><svg viewBox="0 0 24 24" id="logo-youtube" xmlns="http://www.w3.org/2000/svg"><path d="M21.537 7.192c-.246-.862-.953-1.536-1.859-1.769C18.048 5 11.489 5 11.489 5s-6.559.013-8.188.436c-.906.233-1.614.907-1.859 1.77-.493 2.756-.684 6.955.014 9.602.245.862.952 1.536 1.858 1.769 1.63.423 8.189.423 8.189.423s6.559 0 8.188-.423c.906-.233 1.614-.907 1.859-1.77.52-2.76.68-6.957-.013-9.615z"/><path d="M9.4 15l5.442-3L9.4 9v6z" fill="#292A2E"/></svg></svg>