<?xml version="1.0" encoding="utf-8"?><svg viewBox="0 0 32 32" xmlns="http://www.w3.org/2000/svg" xmlns:xlink="http://www.w3.org/1999/xlink"><style>:root>svg{display:none}:root>svg:target{display:block}</style><svg viewBox="0 0 24 24" id="arrow-type-1" xmlns="http://www.w3.org/2000/svg"><path fill-rule="evenodd" clip-rule="evenodd" d="M18.813 8.192c.244.262.25.693.014.964l-6.66 7.636a.588.588 0 01-.432.208.584.584 0 01-.438-.192l-7.11-7.636a.735.735 0 01-.014-.965.573.573 0 01.87-.015l6.667 7.162 6.233-7.146a.573.573 0 01.87-.016z"/></svg><svg viewBox="0 0 24 24" id="arrow-type-2" xmlns="http://www.w3.org/2000/svg"><path fill-rule="evenodd" clip-rule="evenodd" d="M7.192 19.813c.262.244.693.25.964.014l7.636-6.66a.588.588 0 00.208-.432.584.584 0 00-.192-.438l-7.636-7.11a.735.735 0 00-.965-.014.573.573 0 00-.015.87l7.162 6.667-7.146 6.233a.573.573 0 00-.016.87z"/></svg><svg viewBox="0 0 24 24" id="basket" xmlns="http://www.w3.org/2000/svg"><path fill-rule="evenodd" clip-rule="evenodd" d="M0 0h5.05l4 19.2h9.75v1.6H7.75l-4-19.2H0V0z"/><path fill-rule="evenodd" clip-rule="evenodd" d="M24 4.8H6.05l.334 1.6h15.325L18.8 16h-12l.316 1.6H20l4-12.8zM8.4 22.4a.8.8 0 100-1.6.8.8 0 000 1.6zM6 21.6a2.4 2.4 0 104.8 0 2.4 2.4 0 00-4.8 0zM18.8 22.4a.8.8 0 100-1.6.8.8 0 000 1.6zm-2.4-.8a2.4 2.4 0 104.8 0 2.4 2.4 0 00-4.8 0z"/></svg><svg viewBox="0 0 24 24" id="calendar" xmlns="http://www.w3.org/2000/svg"><path fill-rule="evenodd" clip-rule="evenodd" d="M7.935 5.967v1.468h-1.5V5.967H3.5V18.88h16.239V5.967h-2.935v1.468h-1.5V5.967h-7.37zm0-1.5h7.369V3h1.5v1.467h4.435V20.38H2V4.467h4.435V3h1.5v1.467zm.358 7.044H6.076v-1.5h2.217v1.5zm4.435 0h-2.217v-1.5h2.217v1.5zm4.435 0h-2.218v-1.5h2.218v1.5zm-8.87 4.434H6.076v-1.5h2.217v1.5zm4.435 0h-2.217v-1.5h2.217v1.5zm4.435 0h-2.218v-1.5h2.218v1.5z"/></svg><svg viewBox="0 0 24 24" id="cart" xmlns="http://www.w3.org/2000/svg"><path fill-rule="evenodd" clip-rule="evenodd" d="M0 0h5.05l4 19.2h9.75v1.6H7.75l-4-19.2H0V0z"/><path fill-rule="evenodd" clip-rule="evenodd" d="M24 4.8H6.05l.334 1.6h15.325L18.8 16h-12l.316 1.6H20l4-12.8zM8.4 22.4a.8.8 0 100-1.6.8.8 0 000 1.6zM6 21.6a2.4 2.4 0 104.8 0 2.4 2.4 0 00-4.8 0zM18.8 22.4a.8.8 0 100-1.6.8.8 0 000 1.6zm-2.4-.8a2.4 2.4 0 104.8 0 2.4 2.4 0 00-4.8 0z"/></svg><svg viewBox="0 0 24 24" id="dots" xmlns="http://www.w3.org/2000/svg"><path d="M1 6.765v-3.53L4.5 1 8 3.235v3.53L4.5 9 1 6.765zM16 6.765v-3.53L19.5 1 23 3.235v3.53L19.5 9 16 6.765zM1 20.765v-3.53L4.5 15 8 17.235v3.53L4.5 23 1 20.765zM16 20.765v-3.53L19.5 15l3.5 2.235v3.53L19.5 23 16 20.765z"/></svg><svg viewBox="0 0 16 16" id="eye" xmlns="http://www.w3.org/2000/svg"><path d="M15.457 7.798c-.022-.05-.551-1.224-1.728-2.401C12.16 3.829 10.18 3 8 3s-4.16.829-5.729 2.397C1.094 6.574.562 7.75.543 7.797a.5.5 0 000 .407c.022.05.551 1.223 1.728 2.4C3.84 12.17 5.82 13 8 13s4.16-.829 5.729-2.396c1.177-1.177 1.706-2.35 1.728-2.4a.5.5 0 000-.407zM8 12c-1.924 0-3.604-.7-4.996-2.078A8.342 8.342 0 011.562 8a8.334 8.334 0 011.442-1.922C4.396 4.7 6.076 4 8 4c1.924 0 3.604.7 4.996 2.078A8.34 8.34 0 0114.44 8c-.451.841-2.414 4-6.441 4zm0-7a3 3 0 100 6 3 3 0 000-6zm0 5a2 2 0 110-4 2 2 0 010 4z"/></svg><svg viewBox="0 0 24 24" id="information" xmlns="http://www.w3.org/2000/svg"><path d="M12 0a12 12 0 100 24 12 12 0 000-24zm0 22a10 10 0 110-20 10 10 0 010 20z"/><path d="M12.001 9.7a1 1 0 00-1 1v6.8a1 1 0 102 0v-6.8a1 1 0 00-1-1zm0-4.1a1.06 1.06 0 00-1.02 1.04v.16a.94.94 0 001.02.94 1.04 1.04 0 001-1V6.5a.9.9 0 00-1-.9z"/></svg><svg viewBox="0 0 24 24" id="logo-vk" xmlns="http://www.w3.org/2000/svg"><path fill-rule="evenodd" clip-rule="evenodd" d="M23.435 6.042c.178-.588 0-1.015-.787-1.015h-2.619c-.66 0-.965.374-1.143.774 0 0-1.348 3.417-3.228 5.632-.61.64-.89.854-1.22.854-.179 0-.408-.214-.408-.8V6.013c0-.694-.202-1.014-.762-1.014H9.15a.645.645 0 00-.661.64c0 .668.94.828 1.042 2.696v4.06c0 .88-.15 1.041-.483 1.041-.89 0-3.05-3.443-4.346-7.366C4.45 5.294 4.194 5 3.533 5H.89C.127 5 0 5.373 0 5.774c0 .72.89 4.35 4.143 9.155 2.16 3.28 5.236 5.044 8.006 5.044 1.679 0 1.882-.4 1.882-1.067v-2.483c0-.8.152-.933.686-.933.381 0 1.067.213 2.618 1.788C19.114 19.146 19.419 20 20.41 20h2.619c.762 0 1.118-.4.915-1.174-.229-.774-1.093-1.895-2.212-3.23-.61-.746-1.525-1.574-1.805-1.975-.38-.534-.279-.747 0-1.227-.025 0 3.178-4.751 3.508-6.354"/></svg><svg viewBox="0 0 24 24" id="logo-youtube" xmlns="http://www.w3.org/2000/svg"><path d="M21.537 7.192c-.246-.862-.953-1.536-1.859-1.769C18.048 5 11.489 5 11.489 5s-6.559.013-8.188.436c-.906.233-1.614.907-1.859 1.77-.493 2.756-.684 6.955.014 9.602.245.862.952 1.536 1.858 1.769 1.63.423 8.189.423 8.189.423s6.559 0 8.188-.423c.906-.233 1.614-.907 1.859-1.77.52-2.76.68-6.957-.013-9.615z"/><path d="M9.4 15l5.442-3L9.4 9v6z" fill="#292A2E"/></svg><svg viewBox="0 0 32 32" id="play" xmlns="http://www.w3.org/2000/svg"><path fill-rule="evenodd" clip-rule="evenodd" d="M9.218 6.117A.8.8 0 008 6.8v17.6a.8.8 0 001.218.683l14.4-8.8a.8.8 0 000-1.366l-14.4-8.8zM22.817 15.6L9 24.044V7.157L22.817 15.6zm.28-.17z"/></svg><svg viewBox="0 0 24 24" id="sale" xmlns="http://www.w3.org/2000/svg"><path fill-rule="evenodd" clip-rule="evenodd" d="M9.995 4h4.01c3.78 0 5.67 0 6.845 1.172.81.806 1.061 1.951 1.14 3.817.015.37.023.556-.046.679-.07.123-.345.278-.897.586a2 2 0 000 3.492c.552.309.828.463.897.586.07.123.061.308.045.678-.078 1.867-.33 3.012-1.139 3.818C19.676 20 17.786 20 14.005 20h-4.01c-3.78 0-5.67 0-6.845-1.172-.81-.806-1.06-1.951-1.14-3.817-.015-.37-.023-.556.046-.679.07-.123.345-.277.897-.586a1.999 1.999 0 000-3.492c-.552-.308-.828-.463-.897-.586-.069-.123-.06-.308-.045-.679.078-1.866.33-3.01 1.14-3.817C4.323 4 6.213 4 9.994 4zm5.553 4.47a.749.749 0 010 1.06l-6.015 6A.753.753 0 018.25 15a.75.75 0 01.22-.53l6.015-6a.753.753 0 011.063 0zm-1.033 7.03a1 1 0 100-2c-.554 0-1.003.448-1.003 1s.45 1 1.003 1zm-5.013-5c.554 0 1.003-.448 1.003-1s-.449-1-1.003-1a1.001 1.001 0 100 2z"/></svg><svg viewBox="0 0 32 32" id="scale-in" xmlns="http://www.w3.org/2000/svg"><path d="M7.941 25.555a.927.927 0 01-.93-.93v-5.251a.93.93 0 111.86 0l-.002 3.01 13.9-13.9-3.01.002a.93.93 0 010-1.86h5.252a.928.928 0 01.93.93v5.252a.93.93 0 11-1.86 0l.001-3.01-13.9 13.9 3.011-.002a.93.93 0 110 1.86H7.941z"/><path fill-rule="evenodd" clip-rule="evenodd" d="M8.87 19.374a.93.93 0 10-1.859 0v5.252a.929.929 0 00.93.93h5.252a.93.93 0 100-1.86l-3.01.001 13.9-13.9-.002 3.011a.93.93 0 101.86 0V7.556a.929.929 0 00-.93-.93h-5.253a.93.93 0 000 1.86l3.011-.001-13.9 13.9.002-3.011z"/></svg></svg>