<svg width="24" height="24" viewBox="0 0 24 24" xmlns="http://www.w3.org/2000/svg"><path d="M12 0C9.62663 0 7.30655 0.703788 5.33316 2.02236C3.35977 3.34094 1.8217 5.21508 0.913451 7.4078C0.00519943 9.60051 -0.232441 12.0133 0.230582 14.3411C0.693604 16.6689 1.83649 18.807 3.51472 20.4853C5.19295 22.1635 7.33115 23.3064 9.65892 23.7694C11.9867 24.2324 14.3995 23.9948 16.5922 23.0865C18.7849 22.1783 20.6591 20.6402 21.9776 18.6668C23.2962 16.6935 24 14.3734 24 12C24 8.8174 22.7357 5.76515 20.4853 3.51472C18.2348 1.26428 15.1826 0 12 0ZM12 22C10.0222 22 8.08879 21.4135 6.4443 20.3147C4.79981 19.2159 3.51809 17.6541 2.76121 15.8268C2.00433 13.9996 1.8063 11.9889 2.19215 10.0491C2.578 8.10928 3.53041 6.32746 4.92894 4.92893C6.32746 3.53041 8.10929 2.578 10.0491 2.19215C11.9889 1.80629 13.9996 2.00433 15.8268 2.7612C17.6541 3.51808 19.2159 4.79981 20.3147 6.4443C21.4135 8.08879 22 10.0222 22 12C22 14.6522 20.9464 17.1957 19.0711 19.0711C17.1957 20.9464 14.6522 22 12 22Z"/><path d="M12.001 9.70006C11.7357 9.70006 11.4814 9.80541 11.2939 9.99295C11.1063 10.1805 11.001 10.4348 11.001 10.7001V17.5001C11.001 17.7653 11.1063 18.0196 11.2939 18.2072C11.4814 18.3947 11.7357 18.5001 12.001 18.5001C12.2662 18.5001 12.5205 18.3947 12.7081 18.2072C12.8956 18.0196 13.001 17.7653 13.001 17.5001V10.7001C13.001 10.4348 12.8956 10.1805 12.7081 9.99295C12.5205 9.80541 12.2662 9.70006 12.001 9.70006ZM12.001 5.60006C11.7302 5.61024 11.4737 5.72368 11.284 5.91709C11.0943 6.1105 10.9859 6.3692 10.981 6.64006V6.80006C10.9805 6.93053 11.0072 7.05967 11.0593 7.17926C11.1115 7.29886 11.188 7.40628 11.2839 7.4947C11.3799 7.58312 11.4932 7.6506 11.6166 7.69284C11.7401 7.73508 11.871 7.75116 12.001 7.74006C12.263 7.73016 12.5117 7.62162 12.6971 7.43619C12.8825 7.25076 12.9911 7.00211 13.001 6.74006V6.50006C13.0018 6.37296 12.9756 6.24714 12.9243 6.13088C12.8729 6.01461 12.7975 5.91054 12.703 5.82552C12.6086 5.74049 12.4972 5.67644 12.3762 5.63758C12.2551 5.59872 12.1273 5.58593 12.001 5.60006Z"/></svg>