<svg width="24" height="24" viewBox="0 0 24 24" xmlns="http://www.w3.org/2000/svg"><path d="M21.5366 7.19231C21.2914 6.33001 20.5838 5.65641 19.678 5.42308C18.0483 5 11.4894 5 11.4894 5C11.4894 5 4.93042 5.01282 3.30079 5.4359C2.39493 5.66923 1.68731 6.34283 1.44219 7.20513C0.94926 9.96154 0.758013 14.1615 1.45566 16.8077C1.70078 17.67 2.4084 18.3436 3.31425 18.5769C4.94389 19 11.5028 19 11.5028 19C11.5028 19 18.0618 19 19.6914 18.5769C20.5973 18.3436 21.3049 17.67 21.55 16.8077C22.0699 14.0474 22.2302 9.85 21.5366 7.19231Z"/><path d="M9.40084 14.9998L14.8419 11.9998L9.40084 8.9998V14.9998Z" fill="#292A2E"/></svg>