<svg width="24" height="24" viewBox="0 0 24 24" xmlns="http://www.w3.org/2000/svg"><path fill-rule="evenodd" clip-rule="evenodd" d="M0 0H5.05051L9.05051 19.2H18.8V20.8H7.74949L3.74949 1.6H0V0Z"/><path fill-rule="evenodd" clip-rule="evenodd" d="M24 4.8H6.05051L6.38384 6.4H21.7094L18.8 16H6.8L7.11579 17.6H20L24 4.8Z"/><path fill-rule="evenodd" clip-rule="evenodd" d="M8.4 22.4C8.84183 22.4 9.2 22.0418 9.2 21.6C9.2 21.1582 8.84183 20.8 8.4 20.8C7.95817 20.8 7.6 21.1582 7.6 21.6C7.6 22.0418 7.95817 22.4 8.4 22.4ZM6 21.6C6 22.9255 7.07452 24 8.4 24C9.72548 24 10.8 22.9255 10.8 21.6C10.8 20.2745 9.72548 19.2 8.4 19.2C7.07452 19.2 6 20.2745 6 21.6Z"/><path fill-rule="evenodd" clip-rule="evenodd" d="M18.8 22.4C19.2418 22.4 19.6 22.0418 19.6 21.6C19.6 21.1582 19.2418 20.8 18.8 20.8C18.3582 20.8 18 21.1582 18 21.6C18 22.0418 18.3582 22.4 18.8 22.4ZM16.4 21.6C16.4 22.9255 17.4745 24 18.8 24C20.1255 24 21.2 22.9255 21.2 21.6C21.2 20.2745 20.1255 19.2 18.8 19.2C17.4745 19.2 16.4 20.2745 16.4 21.6Z"/></svg>