<svg width="24" height="24" viewBox="0 0 24 24" xmlns="http://www.w3.org/2000/svg"><path fill-rule="evenodd" clip-rule="evenodd" d="M23.435 6.04167C23.613 5.45417 23.435 5.02708 22.6475 5.02708H20.029C19.3685 5.02708 19.0635 5.40104 18.8855 5.80104C18.8855 5.80104 17.5385 9.21771 15.6575 11.4328C15.0475 12.0734 14.768 12.287 14.4375 12.287C14.2595 12.287 14.0305 12.0734 14.0305 11.4865V6.01406C14.0305 5.32031 13.8275 5 13.268 5H9.15001C8.74301 5 8.48901 5.32031 8.48901 5.64063C8.48901 6.30781 9.42951 6.46823 9.53101 8.33646V12.3958C9.53101 13.2766 9.38101 13.4375 9.04801 13.4375C8.15851 13.4375 5.99801 9.99427 4.70201 6.07083C4.45001 5.29375 4.19401 5 3.533 5H0.889501C0.127 5 0 5.37344 0 5.77396C0 6.49479 0.889501 10.1245 4.14301 14.9286C6.30351 18.2099 9.37901 19.9734 12.1495 19.9734C13.8275 19.9734 14.0305 19.5729 14.0305 18.9057V16.4234C14.0305 15.6229 14.183 15.4896 14.717 15.4896C15.098 15.4896 15.7845 15.7026 17.335 17.2776C19.114 19.1458 19.419 20 20.4105 20H23.0285C23.791 20 24.147 19.5995 23.9435 18.8255C23.715 18.0516 22.8505 16.9307 21.732 15.5964C21.122 14.8495 20.207 14.0219 19.9275 13.6214C19.5465 13.0875 19.648 12.874 19.9275 12.3938C19.902 12.3938 23.105 7.64271 23.435 6.03958"/></svg>