<svg width="32" height="32" viewBox="0 0 32 32" xmlns="http://www.w3.org/2000/svg"><path fill-rule="evenodd" clip-rule="evenodd" d="M9.21788 6.11743C9.0966 6.04331 8.95778 6.0028 8.81564 6.00014C8.67349 5.99748 8.53323 6.03276 8.40928 6.10223C8.28534 6.1718 8.18203 6.27311 8.11023 6.39573C8.03844 6.51835 8.00049 6.65794 8.00049 6.80009L8.00049 24.4003C8.00049 24.5425 8.03844 24.682 8.11023 24.8047C8.18203 24.9274 8.28534 25.0286 8.40928 25.0982C8.53323 25.1677 8.67349 25.2029 8.81564 25.2003C8.95778 25.1976 9.0966 25.1572 9.21788 25.0831L23.6175 16.2829C23.7345 16.2114 23.8312 16.1111 23.8982 15.9916C23.9652 15.872 24.0005 15.7373 24.0005 15.6003C24.0005 15.4631 23.9652 15.3284 23.8982 15.2089C23.8312 15.0893 23.7345 14.9889 23.6175 14.9175L9.21788 6.11743ZM22.817 15.6002L9.00049 24.044L9.00049 7.15653L22.817 15.6002ZM23.0962 15.4296L23.0961 15.4296Z"/></svg>