<svg width="32" height="32" viewBox="0 0 32 32" xmlns="http://www.w3.org/2000/svg"><path d="M7.9411 25.5553C7.81897 25.5555 7.69802 25.5316 7.58516 25.4849C7.4723 25.4382 7.36976 25.3698 7.28341 25.2834C7.19705 25.1971 7.12858 25.0945 7.08192 24.9817C7.03526 24.8688 7.01131 24.7478 7.01147 24.6257L7.01147 19.3736C7.01147 19.2515 7.03551 19.1306 7.08223 19.0178C7.12895 18.9051 7.19743 18.8026 7.28375 18.7163C7.37007 18.6299 7.47256 18.5615 7.58534 18.5147C7.69813 18.468 7.81902 18.444 7.9411 18.444C8.06318 18.444 8.18406 18.468 8.29685 18.5147C8.40963 18.5615 8.51212 18.6299 8.59844 18.7163C8.68476 18.8026 8.75324 18.9051 8.79996 19.0178C8.84668 19.1306 8.87072 19.2515 8.87072 19.3736L8.86941 22.3844L22.7692 8.48463L19.7584 8.48595C19.5118 8.48595 19.2754 8.388 19.101 8.21366C18.9267 8.03932 18.8287 7.80287 18.8287 7.55632C18.8287 7.30977 18.9267 7.07331 19.101 6.89897C19.2754 6.72464 19.5118 6.62669 19.7584 6.62669L25.0105 6.62669C25.1326 6.62654 25.2536 6.65048 25.3664 6.69714C25.4793 6.74381 25.5818 6.81228 25.6682 6.89863C25.7545 6.98498 25.823 7.08753 25.8697 7.20038C25.9163 7.31324 25.9403 7.4342 25.9401 7.55632V12.8084C25.9401 13.055 25.8422 13.2914 25.6678 13.4658C25.4935 13.6401 25.257 13.7381 25.0105 13.7381C24.7639 13.7381 24.5275 13.6401 24.3532 13.4658C24.1788 13.2914 24.0809 13.055 24.0809 12.8084L24.0822 9.79766L10.1824 23.6974L13.1932 23.6961C13.4398 23.6961 13.6762 23.794 13.8506 23.9684C14.0249 24.1427 14.1228 24.3792 14.1228 24.6257C14.1228 24.8723 14.0249 25.1087 13.8506 25.2831C13.6762 25.4574 13.4398 25.5553 13.1932 25.5553H7.9411Z"/><path fill-rule="evenodd" clip-rule="evenodd" d="M8.87072 19.3736C8.87072 19.2515 8.84668 19.1306 8.79996 19.0178C8.75324 18.9051 8.68476 18.8026 8.59844 18.7163C8.51212 18.6299 8.40963 18.5615 8.29685 18.5147C8.18406 18.468 8.06318 18.444 7.9411 18.444C7.81902 18.444 7.69813 18.468 7.58534 18.5147C7.47256 18.5615 7.37007 18.6299 7.28375 18.7163C7.19743 18.8026 7.12895 18.9051 7.08223 19.0178C7.03551 19.1306 7.01147 19.2515 7.01147 19.3736L7.01147 24.6257C7.01131 24.7478 7.03526 24.8688 7.08192 24.9817C7.12858 25.0945 7.19705 25.1971 7.28341 25.2834C7.36976 25.3698 7.4723 25.4382 7.58516 25.4849C7.69802 25.5316 7.81897 25.5555 7.9411 25.5553H13.1932C13.4398 25.5553 13.6762 25.4574 13.8506 25.2831C14.0249 25.1087 14.1228 24.8723 14.1228 24.6257C14.1228 24.3792 14.0249 24.1427 13.8506 23.9684C13.6762 23.794 13.4398 23.6961 13.1932 23.6961L10.1824 23.6974L24.0822 9.79766L24.0809 12.8084C24.0809 13.055 24.1788 13.2914 24.3532 13.4658C24.5275 13.6401 24.7639 13.7381 25.0105 13.7381C25.257 13.7381 25.4935 13.6401 25.6678 13.4658C25.8422 13.2914 25.9401 13.055 25.9401 12.8084V7.55632C25.9403 7.4342 25.9163 7.31324 25.8697 7.20038C25.823 7.08753 25.7545 6.98498 25.6682 6.89863C25.5818 6.81228 25.4793 6.74381 25.3664 6.69714C25.2536 6.65048 25.1326 6.62654 25.0105 6.62669L19.7584 6.62669C19.5118 6.62669 19.2754 6.72464 19.101 6.89897C18.9267 7.07331 18.8287 7.30977 18.8287 7.55632C18.8287 7.80287 18.9267 8.03932 19.101 8.21366C19.2754 8.388 19.5118 8.48595 19.7584 8.48595L22.7692 8.48463L8.86941 22.3844L8.87072 19.3736Z"/></svg>