<svg width="38" height="40" viewBox="0 0 38 40" fill="none" xmlns="http://www.w3.org/2000/svg">
<path d="M6.91523 35.8372V33.919C6.91523 33.1836 6.45848 32.7042 5.67558 32.7042C5.28421 32.7042 4.86015 32.832 4.56655 33.2477C4.33832 32.896 4.01218 32.7042 3.52289 32.7042C3.1966 32.7042 2.8706 32.8 2.60954 33.1517V32.7681H1.92456V35.8372H2.60954V34.1427C2.60954 33.5994 2.90314 33.3435 3.35989 33.3435C3.81634 33.3435 4.04487 33.6313 4.04487 34.1427V35.8372H4.72984V34.1427C4.72984 33.5994 5.05584 33.3435 5.4799 33.3435C5.93665 33.3435 6.16488 33.6313 6.16488 34.1427V35.8372H6.91523V35.8372ZM17.0593 32.7681H15.9504V31.841H15.2654V32.7681H14.6457V33.3754H15.2653V34.7822C15.2653 35.4856 15.5589 35.9011 16.3417 35.9011C16.6354 35.9011 16.9613 35.8053 17.1899 35.6774L16.994 35.1019C16.7983 35.2297 16.5701 35.2618 16.407 35.2618C16.0808 35.2618 15.9504 35.07 15.9504 34.7502V33.3754H17.0593V32.7681V32.7681ZM22.8654 32.704C22.474 32.704 22.2131 32.896 22.0499 33.1517V32.7681H21.365V35.8372H22.0499V34.1108C22.0499 33.5994 22.2782 33.3116 22.7022 33.3116C22.8327 33.3116 22.9958 33.3436 23.1263 33.3755L23.322 32.7362C23.1915 32.7042 22.9958 32.7042 22.8654 32.7042V32.704ZM14.0911 33.0238C13.7648 32.8 13.3082 32.7042 12.8189 32.7042C12.0362 32.7042 11.5144 33.0878 11.5144 33.6952C11.5144 34.2068 11.9057 34.4944 12.5907 34.5904L12.9169 34.6225C13.2757 34.6862 13.4714 34.7822 13.4714 34.9421C13.4714 35.1658 13.2105 35.3257 12.7537 35.3257C12.2971 35.3257 11.9383 35.1658 11.7099 35.0061L11.3838 35.5175C11.7426 35.7733 12.2319 35.9011 12.721 35.9011C13.6344 35.9011 14.1564 35.4856 14.1564 34.9101C14.1564 34.3666 13.7323 34.0788 13.0799 33.983L12.7537 33.9509C12.4601 33.9189 12.2319 33.8551 12.2319 33.6633C12.2319 33.4395 12.4601 33.3116 12.8189 33.3116C13.2105 33.3116 13.6018 33.4714 13.7975 33.5673L14.0911 33.0238V33.0238ZM32.292 32.7042C31.9005 32.7042 31.6396 32.896 31.4765 33.1517V32.7681H30.7915V35.8372H31.4765V34.1108C31.4765 33.5994 31.7048 33.3116 32.1287 33.3116C32.2593 33.3116 32.4225 33.3436 32.5529 33.3755L32.7486 32.7362C32.6182 32.7042 32.4225 32.7042 32.292 32.7042V32.7042ZM23.5503 34.3026C23.5503 35.2297 24.2026 35.9011 25.2139 35.9011C25.6705 35.9011 25.9966 35.8053 26.3228 35.5496L25.9966 35.0061C25.7357 35.1979 25.4748 35.2937 25.1812 35.2937C24.6267 35.2937 24.2353 34.9101 24.2353 34.3026C24.2353 33.7272 24.6267 33.3435 25.1812 33.3116C25.4748 33.3116 25.7357 33.4074 25.9966 33.5994L26.3228 33.0559C25.9966 32.8 25.6705 32.7042 25.2139 32.7042C24.2026 32.7042 23.5503 33.3755 23.5503 34.3026ZM29.8783 34.3026V32.7681H29.1933V33.1517C28.9649 32.8641 28.6388 32.7042 28.2147 32.7042C27.3341 32.7042 26.6491 33.3755 26.6491 34.3026C26.6491 35.2297 27.3341 35.9011 28.2147 35.9011C28.6713 35.9011 28.9976 35.7414 29.1933 35.4536V35.8372H29.8783V34.3026V34.3026ZM27.3666 34.3026C27.3666 33.7591 27.7254 33.3116 28.3125 33.3116C28.867 33.3116 29.2585 33.7272 29.2585 34.3026C29.2585 34.8461 28.867 35.2937 28.3125 35.2937C27.7254 35.2616 27.3666 34.8461 27.3666 34.3026V34.3026ZM19.1796 32.7042C18.2662 32.7042 17.6138 33.3435 17.6138 34.3026C17.6138 35.2618 18.2661 35.9011 19.2121 35.9011C19.6687 35.9011 20.1255 35.7733 20.4843 35.4856L20.158 35.0061C19.8971 35.1979 19.5709 35.3257 19.2448 35.3257C18.8207 35.3257 18.3967 35.1339 18.2988 34.5903H20.6148V34.3347C20.6474 33.3435 20.0602 32.7042 19.1794 32.7042H19.1796ZM19.1796 33.2796C19.6035 33.2796 19.8972 33.5354 19.9623 34.015H18.3314C18.3967 33.5994 18.6903 33.2796 19.1796 33.2796ZM36.1735 34.3026V31.5532H35.4885V33.1517C35.2602 32.8641 34.934 32.7042 34.51 32.7042C33.6293 32.7042 32.9443 33.3755 32.9443 34.3026C32.9443 35.2297 33.6293 35.9011 34.51 35.9011C34.9667 35.9011 35.2929 35.7414 35.4885 35.4536V35.8372H36.1735V34.3026V34.3026ZM33.662 34.3026C33.662 33.7591 34.0207 33.3116 34.6079 33.3116C35.1624 33.3116 35.5538 33.7272 35.5538 34.3026C35.5538 34.8461 35.1624 35.2937 34.6079 35.2937C34.0207 35.2616 33.662 34.8461 33.662 34.3026V34.3026ZM10.764 34.3026V32.7681H10.079V33.1517C9.85067 32.8641 9.52453 32.7042 9.10047 32.7042C8.2198 32.7042 7.53483 33.3755 7.53483 34.3026C7.53483 35.2297 8.2198 35.9011 9.10047 35.9011C9.55722 35.9011 9.88336 35.7414 10.079 35.4536V35.8372H10.764V34.3026V34.3026ZM8.2198 34.3026C8.2198 33.7591 8.57864 33.3116 9.16569 33.3116C9.72021 33.3116 10.1117 33.7272 10.1117 34.3026C10.1117 34.8461 9.72021 35.2937 9.16569 35.2937C8.57864 35.2616 8.2198 34.8461 8.2198 34.3026V34.3026Z" fill="#FAFAFA"/>
<path d="M13.8627 9.46118H24.1373V27.5563H13.8627V9.46118Z" fill="#FF5F00"/>
<path d="M14.5151 18.5093C14.5151 14.8328 16.2764 11.5717 18.9837 9.46165C16.9941 7.9271 14.4826 7 11.7427 7C5.25144 7 0 12.1471 0 18.5093C0 24.8713 5.25144 30.0186 11.7425 30.0186C14.4824 30.0186 16.994 29.0915 18.9837 27.5568C16.2764 25.4787 14.5151 22.1858 14.5151 18.5093V18.5093Z" fill="#EB001B"/>
<path d="M37.9999 18.5093C37.9999 24.8713 32.7484 30.0186 26.2574 30.0186C23.5175 30.0186 21.0059 29.0915 19.0162 27.5568C21.7561 25.4468 23.4849 22.1858 23.4849 18.5093C23.4849 14.8328 21.7235 11.5717 19.0162 9.46165C21.0058 7.9271 23.5175 7 26.2574 7C32.7484 7 38 12.1792 38 18.5093H37.9999Z" fill="#F79E1B"/>
</svg>
