<svg width="47" height="40" viewBox="0 0 47 40" fill="none" xmlns="http://www.w3.org/2000/svg">
<path d="M34.1662 10.6144C33.074 10.1999 31.9194 9.99194 30.7569 10.0002C26.9975 10.0002 24.3423 11.9725 24.3236 14.8036C24.3001 16.8835 26.2103 18.0556 27.6554 18.7505C29.138 19.465 29.6338 19.9153 29.6291 20.5539C29.6197 21.5253 28.4448 21.9658 27.3522 21.9658C25.8508 21.9658 25.0308 21.748 23.769 21.2023L23.3015 20.9748L22.7681 24.2341C23.6821 24.6305 25.3292 24.9706 27.0303 25C31.0271 25 33.6399 23.04 33.6704 20.0278C33.7033 18.3663 32.6695 17.1111 30.4937 16.0736C29.1709 15.4006 28.3508 14.9504 28.3508 14.2677C28.3508 13.6633 29.0534 13.0173 30.5219 13.0173C31.4993 12.9927 32.4706 13.1837 33.372 13.5777L33.7245 13.7416L34.2579 10.5924L34.1662 10.6144V10.6144ZM43.922 10.2645H40.9849C40.0709 10.2645 39.3824 10.5263 38.983 11.4709L33.3344 24.7969H37.3312L38.1301 22.6118L43.008 22.6167C43.1231 23.1281 43.4755 24.7969 43.4755 24.7969H47L43.922 10.2645V10.2645ZM18.917 10.1422H22.7258L20.3432 24.6819H16.5392L18.917 10.1373V10.1422V10.1422ZM9.24821 18.1559L9.64295 20.1746L13.3648 10.2645H17.3991L11.4052 24.7773H7.38024L4.09074 12.4888C4.03746 12.2862 3.91234 12.1121 3.74064 12.0018C2.55501 11.364 1.29876 10.88 0 10.5606L0.0516921 10.2547H6.18192C7.0137 10.289 7.68335 10.5606 7.90656 11.4855L9.24586 18.1632V18.1559H9.24821ZM39.2227 19.6387L40.7405 15.5719C40.7217 15.616 41.053 14.7326 41.2457 14.187L41.5065 15.4422L42.3876 19.6363H39.2203V19.6387H39.2227Z" fill="#FAFAFA"/>
</svg>
